<?xml version="1.0" encoding="us-ascii" standalone="no"?><svg xmlns="http://www.w3.org/2000/svg" xmlns:xlink="http://www.w3.org/1999/xlink" contentStyleType="text/css" height="1084px" preserveAspectRatio="none" style="width:1601px;height:1084px;background:#FFFFFF;" version="1.1" viewBox="0 0 1601 1084" width="1601px" zoomAndPan="magnify"><defs/><g><!--cluster Application--><g id="cluster_Application"><rect fill="none" height="313" rx="2.5" ry="2.5" style="stroke:#181818;stroke-width:1.0;" width="515.03" x="372.8" y="50.65"/><text fill="#000000" font-family="sans-serif" font-size="14" font-weight="bold" lengthAdjust="spacing" textLength="79" x="590.815" y="67.6159">Application</text></g><!--cluster JobOffer--><g id="cluster_JobOffer"><rect fill="none" height="452" rx="2.5" ry="2.5" style="stroke:#181818;stroke-width:1.0;" width="201.17" x="379.73" y="387.65"/><text fill="#000000" font-family="sans-serif" font-size="14" font-weight="bold" lengthAdjust="spacing" textLength="58" x="451.315" y="404.6159">JobOffer</text></g><!--cluster Profile--><g id="cluster_Profile"><rect fill="none" height="293" rx="2.5" ry="2.5" style="stroke:#181818;stroke-width:1.0;" width="470.35" x="687.27" y="764.65"/><text fill="#000000" font-family="sans-serif" font-size="14" font-weight="bold" lengthAdjust="spacing" textLength="45" x="899.945" y="781.6159">Profile</text></g><!--cluster Review--><g id="cluster_Review"><rect fill="none" height="192" rx="2.5" ry="2.5" style="stroke:#181818;stroke-width:1.0;" width="202.8" x="7" y="481.65"/><text fill="#000000" font-family="sans-serif" font-size="14" font-weight="bold" lengthAdjust="spacing" textLength="49" x="83.9" y="498.6159">Review</text></g><!--cluster Subscription--><g id="cluster_Subscription"><rect fill="none" height="167" rx="2.5" ry="2.5" style="stroke:#181818;stroke-width:1.0;" width="404.91" x="1190.62" y="466.65"/><text fill="#000000" font-family="sans-serif" font-size="14" font-weight="bold" lengthAdjust="spacing" textLength="87" x="1349.575" y="483.6159">Subscription</text></g><g id="elem_contact"><ellipse cx="480.3078" cy="105.6493" fill="#F1F1F1" rx="48.7578" ry="16.8493" style="stroke:#181818;stroke-width:0.5;"/><text fill="#000000" font-family="sans-serif" font-size="14" lengthAdjust="spacing" textLength="51" x="451.8078" y="110.3823">Contact</text></g><g id="elem_viewApplications"><ellipse cx="783.8282" cy="107.6516" fill="#F1F1F1" rx="84.9582" ry="19.3916" style="stroke:#181818;stroke-width:0.5;"/><text fill="#000000" font-family="sans-serif" font-size="14" lengthAdjust="spacing" textLength="117" x="722.3282" y="112.3846">View applications</text></g><g id="elem_accept"><ellipse cx="783.8262" cy="181.6532" fill="#F1F1F1" rx="87.6162" ry="19.9232" style="stroke:#181818;stroke-width:0.5;"/><text fill="#000000" font-family="sans-serif" font-size="14" lengthAdjust="spacing" textLength="124" x="718.8262" y="186.3862">Accept application</text></g><g id="elem_refuse"><ellipse cx="783.8309" cy="256.6502" fill="#F1F1F1" rx="88.0009" ry="20.0002" style="stroke:#181818;stroke-width:0.5;"/><text fill="#000000" font-family="sans-serif" font-size="14" lengthAdjust="spacing" textLength="125" x="718.3309" y="261.3831">Refuse application</text></g><g id="elem_confirmAcceptance"><ellipse cx="480.315" cy="251.653" fill="#F1F1F1" rx="91.515" ry="20.703" style="stroke:#181818;stroke-width:0.5;"/><text fill="#000000" font-family="sans-serif" font-size="14" lengthAdjust="spacing" textLength="134" x="410.315" y="256.386">Confirm acceptance</text></g><g id="elem_refuseAcceptance"><ellipse cx="480.3068" cy="327.6474" fill="#F1F1F1" rx="88.3868" ry="20.0774" style="stroke:#181818;stroke-width:0.5;"/><text fill="#000000" font-family="sans-serif" font-size="14" lengthAdjust="spacing" textLength="126" x="414.3068" y="332.3803">Refuse acceptance</text></g><g id="elem_notifyCandidate"><ellipse cx="480.3118" cy="176.6464" fill="#F1F1F1" rx="82.7318" ry="18.9464" style="stroke:#181818;stroke-width:0.5;"/><text fill="#000000" font-family="sans-serif" font-size="14" lengthAdjust="spacing" textLength="111" x="421.8118" y="181.3793">Notify candidate</text></g><g id="elem_notifyRecruiter"><ellipse cx="783.825" cy="329.649" fill="#F1F1F1" rx="79.845" ry="18.369" style="stroke:#181818;stroke-width:0.5;"/><text fill="#000000" font-family="sans-serif" font-size="14" lengthAdjust="spacing" textLength="103" x="729.325" y="334.382">Notify recruiter</text></g><g id="elem_createJob"><ellipse cx="480.3074" cy="804.6515" fill="#F1F1F1" rx="80.5574" ry="18.5115" style="stroke:#181818;stroke-width:0.5;"/><text fill="#000000" font-family="sans-serif" font-size="14" lengthAdjust="spacing" textLength="105" x="424.8074" y="809.3845">Create job offer</text></g><g id="elem_updateJob"><ellipse cx="480.3056" cy="732.6531" fill="#F1F1F1" rx="82.3656" ry="18.8731" style="stroke:#181818;stroke-width:0.5;"/><text fill="#000000" font-family="sans-serif" font-size="14" lengthAdjust="spacing" textLength="110" x="422.3056" y="737.3861">Update job offer</text></g><g id="elem_readJob"><ellipse cx="480.3118" cy="588.6524" fill="#F1F1F1" rx="77.0618" ry="17.8124" style="stroke:#181818;stroke-width:0.5;"/><text fill="#000000" font-family="sans-serif" font-size="14" lengthAdjust="spacing" textLength="95" x="429.8118" y="593.3853">Read job offer</text></g><g id="elem_deleteJob"><ellipse cx="480.3104" cy="517.6501" fill="#F1F1F1" rx="80.2004" ry="18.4401" style="stroke:#181818;stroke-width:0.5;"/><text fill="#000000" font-family="sans-serif" font-size="14" lengthAdjust="spacing" textLength="104" x="425.3104" y="522.383">Delete job offer</text></g><g id="elem_searchJob"><ellipse cx="480.3061" cy="659.6452" fill="#F1F1F1" rx="81.2761" ry="18.6552" style="stroke:#181818;stroke-width:0.5;"/><text fill="#000000" font-family="sans-serif" font-size="14" lengthAdjust="spacing" textLength="107" x="423.8061" y="664.3782">Search job offer</text></g><g id="elem_applyJob"><ellipse cx="480.3137" cy="444.6467" fill="#F1F1F1" rx="84.5837" ry="19.3167" style="stroke:#181818;stroke-width:0.5;"/><text fill="#000000" font-family="sans-serif" font-size="14" lengthAdjust="spacing" textLength="116" x="419.3137" y="449.3797">Apply to job offer</text></g><g id="elem_Profile_CRU"><ellipse cx="783.826" cy="850.6531" fill="#F1F1F1" rx="70.456" ry="48.3031" style="stroke:#181818;stroke-width:0.5;"/><text fill="#000000" font-family="sans-serif" font-size="14" lengthAdjust="spacing" textLength="56" x="750.076" y="827.0171">Register</text><line style="stroke:#181818;stroke-width:1.0;stroke-dasharray:1.0,2.0;" x1="720.3883" x2="847.2637" y1="831.1191" y2="831.1191"/><text fill="#000000" font-family="sans-serif" font-size="14" lengthAdjust="spacing" textLength="97" x="729.576" y="850.085">Update profile</text><line style="stroke:#181818;stroke-width:1.0;stroke-dasharray:1.0,2.0;" x1="715.2323" x2="852.4197" y1="858.187" y2="858.187"/><text fill="#000000" font-family="sans-serif" font-size="14" lengthAdjust="spacing" textLength="79" x="738.576" y="877.1529">View profile</text></g><g id="elem_askDeletion"><ellipse cx="783.8274" cy="952.6515" fill="#F1F1F1" rx="80.5574" ry="18.5115" style="stroke:#181818;stroke-width:0.5;"/><text fill="#000000" font-family="sans-serif" font-size="14" lengthAdjust="spacing" textLength="105" x="728.3274" y="957.3845">Ask for deletion</text></g><g id="elem_notifyAdmin"><ellipse cx="1067.2344" cy="952.6489" fill="#F1F1F1" rx="74.3944" ry="17.2789" style="stroke:#181818;stroke-width:0.5;"/><text fill="#000000" font-family="sans-serif" font-size="14" lengthAdjust="spacing" textLength="87" x="1020.7344" y="957.3818">Notify admin</text></g><g id="elem_deleteProfile"><ellipse cx="783.8328" cy="1023.6526" fill="#F1F1F1" rx="75.7128" ry="17.5426" style="stroke:#181818;stroke-width:0.5;"/><text fill="#000000" font-family="sans-serif" font-size="14" lengthAdjust="spacing" textLength="91" x="735.3328" y="1028.3855">Delete profile</text></g><g id="elem_Review_CRUD"><ellipse cx="108.4" cy="588.65" fill="#F1F1F1" rx="85.4" ry="68.92" style="stroke:#181818;stroke-width:0.5;"/><text fill="#000000" font-family="sans-serif" font-size="14" lengthAdjust="spacing" textLength="87" x="60.9" y="551.4801">Add a review</text><line style="stroke:#181818;stroke-width:1.0;stroke-dasharray:1.0,2.0;" x1="34.472" x2="182.3279" y1="555.582" y2="555.582"/><text fill="#000000" font-family="sans-serif" font-size="14" lengthAdjust="spacing" textLength="109" x="49.9" y="574.548">Update a review</text><line style="stroke:#181818;stroke-width:1.0;stroke-dasharray:1.0,2.0;" x1="24.3242" x2="192.4757" y1="582.65" y2="582.65"/><text fill="#000000" font-family="sans-serif" font-size="14" lengthAdjust="spacing" textLength="91" x="58.9" y="601.6159">View a review</text><line style="stroke:#181818;stroke-width:1.0;stroke-dasharray:1.0,2.0;" x1="28.0879" x2="188.712" y1="609.7179" y2="609.7179"/><text fill="#000000" font-family="sans-serif" font-size="14" lengthAdjust="spacing" textLength="103" x="52.9" y="628.6838">Delete a review</text></g><g id="elem_selectSubscription"><ellipse cx="1250.8444" cy="522.6505" fill="#F1F1F1" rx="40.4444" ry="16.7305" style="stroke:#181818;stroke-width:0.5;"/><text fill="#000000" font-family="sans-serif" font-size="14" lengthAdjust="spacing" textLength="40" x="1227.8444" y="527.3835">Select</text></g><g id="elem_renewSubscription"><ellipse cx="1250.8426" cy="591.65" fill="#F1F1F1" rx="44.2226" ry="16.79" style="stroke:#181818;stroke-width:0.5;"/><text fill="#000000" font-family="sans-serif" font-size="14" lengthAdjust="spacing" textLength="45" x="1225.3426" y="596.3829">Renew</text></g><g id="elem_paySubscription"><ellipse cx="1496.8018" cy="553.6464" fill="#F1F1F1" rx="82.7318" ry="18.9464" style="stroke:#181818;stroke-width:0.5;"/><text fill="#000000" font-family="sans-serif" font-size="14" lengthAdjust="spacing" textLength="111" x="1438.3018" y="558.3793">Pay subscription</text></g><!--entity Recruiter--><g id="elem_Recruiter"><ellipse cx="1067.23" cy="522.61" fill="#F1F1F1" rx="8" ry="8" style="stroke:#181818;stroke-width:0.5;"/><path d="M1067.23,530.61 L1067.23,557.61 M1054.23,538.61 L1080.23,538.61 M1067.23,557.61 L1054.23,572.61 M1067.23,557.61 L1080.23,572.61 " fill="none" style="stroke:#181818;stroke-width:0.5;"/><text fill="#000000" font-family="sans-serif" font-size="14" lengthAdjust="spacing" textLength="62" x="1036.23" y="589.0759">Recruiter</text></g><!--entity Candidate--><g id="elem_Candidate"><ellipse cx="291.3" cy="557.61" fill="#F1F1F1" rx="8" ry="8" style="stroke:#181818;stroke-width:0.5;"/><path d="M291.3,565.61 L291.3,592.61 M278.3,573.61 L304.3,573.61 M291.3,592.61 L278.3,607.61 M291.3,592.61 L304.3,607.61 " fill="none" style="stroke:#181818;stroke-width:0.5;"/><text fill="#000000" font-family="sans-serif" font-size="14" lengthAdjust="spacing" textLength="69" x="256.8" y="624.0759">Candidate</text></g><!--entity Admin--><g id="elem_Admin"><ellipse cx="480.31" cy="1009.61" fill="#F1F1F1" rx="8" ry="8" style="stroke:#181818;stroke-width:0.5;"/><path d="M480.31,1017.61 L480.31,1044.61 M467.31,1025.61 L493.31,1025.61 M480.31,1044.61 L467.31,1059.61 M480.31,1044.61 L493.31,1059.61 " fill="none" style="stroke:#181818;stroke-width:0.5;"/><text fill="#000000" font-family="sans-serif" font-size="14" lengthAdjust="spacing" textLength="44" x="458.31" y="1076.0759">Admin</text></g><!--reverse link notifyCandidate to accept--><g id="link_notifyCandidate_accept"><path d="M569.09,174.24 C599.71,173.78 634.29,173.7 665.83,174.65 C676.61,174.97 687.94,175.46 699.13,176.03 " fill="none" id="notifyCandidate-backto-accept" style="stroke:#181818;stroke-width:1.0;stroke-dasharray:7.0,7.0;"/><polygon fill="#181818" points="564.13,174.31,573.1864,178.1807,569.1295,174.2384,573.0718,170.1815,564.13,174.31" style="stroke:#181818;stroke-width:1.0;"/><text fill="#000000" font-family="sans-serif" font-size="13" lengthAdjust="spacing" textLength="57" x="605.33" y="170.547">&#171;include&#187;</text></g><!--reverse link notifyCandidate to refuse--><g id="link_notifyCandidate_refuse"><path d="M541.64,192.65 C595.07,206.83 672.54,227.38 725.16,241.35 " fill="none" id="notifyCandidate-backto-refuse" style="stroke:#181818;stroke-width:1.0;stroke-dasharray:7.0,7.0;"/><polygon fill="#181818" points="537.03,191.43,544.6977,197.6111,541.8616,192.7165,546.7562,189.8804,537.03,191.43" style="stroke:#181818;stroke-width:1.0;"/><text fill="#000000" font-family="sans-serif" font-size="13" lengthAdjust="spacing" textLength="57" x="605.33" y="205.547">&#171;include&#187;</text></g><!--link confirmAcceptance to notifyRecruiter--><g id="link_confirmAcceptance_notifyRecruiter"><path d="M541.97,267.34 C594.68,280.97 670.61,300.62 723.07,314.19 " fill="none" id="confirmAcceptance-to-notifyRecruiter" style="stroke:#181818;stroke-width:1.0;stroke-dasharray:7.0,7.0;"/><polygon fill="#181818" points="727.88,315.43,720.1738,309.297,723.0404,314.1737,718.1637,317.0403,727.88,315.43" style="stroke:#181818;stroke-width:1.0;"/><text fill="#000000" font-family="sans-serif" font-size="13" lengthAdjust="spacing" textLength="57" x="605.33" y="280.547">&#171;include&#187;</text></g><!--link refuseAcceptance to notifyRecruiter--><g id="link_refuseAcceptance_notifyRecruiter"><path d="M568.93,328.23 C609.37,328.5 657.2,328.81 697.37,329.08 " fill="none" id="refuseAcceptance-to-notifyRecruiter" style="stroke:#181818;stroke-width:1.0;stroke-dasharray:7.0,7.0;"/><polygon fill="#181818" points="702.23,329.11,693.253,325.0586,697.2301,329.0814,693.2073,333.0585,702.23,329.11" style="stroke:#181818;stroke-width:1.0;"/><text fill="#000000" font-family="sans-serif" font-size="13" lengthAdjust="spacing" textLength="57" x="605.33" y="324.547">&#171;include&#187;</text></g><!--link contact to viewApplications--><!--reverse link contact to Recruiter--><g id="link_contact_Recruiter"><path d="M517.75,90.32 C593.1,61.14 769.59,6 895.83,70.65 C978.24,112.85 1039.33,406.01 1059.25,513.91 " fill="none" id="contact-backto-Recruiter" style="stroke:#181818;stroke-width:1.0;"/><polygon fill="#181818" points="513.47,91.99,523.3093,92.424,518.1241,90.1626,520.3855,84.9774,513.47,91.99" style="stroke:#181818;stroke-width:1.0;"/></g><!--reverse link accept to Recruiter--><g id="link_accept_Recruiter"><path d="M853.97,197.59 C868.59,202.85 883.36,209.73 895.83,218.65 C997.2,291.15 1042.16,441.95 1058.45,513.85 " fill="none" id="accept-backto-Recruiter" style="stroke:#181818;stroke-width:1.0;"/><polygon fill="#181818" points="849.59,196.07,856.7788,202.8021,854.3131,197.7109,859.4043,195.2452,849.59,196.07" style="stroke:#181818;stroke-width:1.0;"/></g><!--reverse link refuse to Recruiter--><g id="link_refuse_Recruiter"><path d="M855.85,272.45 C869.98,277.69 884.07,284.59 895.83,293.65 C972.59,352.75 1025.48,456.8 1050.23,513.7 " fill="none" id="refuse-backto-Recruiter" style="stroke:#181818;stroke-width:1.0;"/><polygon fill="#181818" points="851.23,270.81,858.376,277.5875,855.9426,272.4808,861.0493,270.0474,851.23,270.81" style="stroke:#181818;stroke-width:1.0;"/></g><!--reverse link viewApplications to Recruiter--><g id="link_viewApplications_Recruiter"><path d="M851.99,123.22 C867.2,128.55 882.72,135.55 895.83,144.65 C934.78,171.68 940.39,185.89 962.83,227.65 C1014.55,323.88 1045.34,450.19 1058.56,513.63 " fill="none" id="viewApplications-backto-Recruiter" style="stroke:#181818;stroke-width:1.0;"/><polygon fill="#181818" points="847.38,121.66,854.6292,128.327,852.1177,123.2583,857.1864,120.7467,847.38,121.66" style="stroke:#181818;stroke-width:1.0;"/></g><!--link Candidate to confirmAcceptance--><g id="link_Candidate_confirmAcceptance"><path d="M297.15,548.72 C306.71,476.31 330.11,327.32 364.8,289.65 C374.27,279.36 386.6,271.85 399.64,266.37 " fill="none" id="Candidate-to-confirmAcceptance" style="stroke:#181818;stroke-width:1.0;"/><polygon fill="#181818" points="404.26,264.55,394.4207,264.116,399.6059,266.3774,397.3445,271.5626,404.26,264.55" style="stroke:#181818;stroke-width:1.0;"/></g><!--link Candidate to refuseAcceptance--><g id="link_Candidate_refuseAcceptance"><path d="M301.53,548.7 C311.96,510.06 331.92,451.4 364.8,409.65 C384.49,384.64 413.76,363.87 437.78,349.48 " fill="none" id="Candidate-to-refuseAcceptance" style="stroke:#181818;stroke-width:1.0;"/><polygon fill="#181818" points="441.83,347.1,432.0471,348.2381,437.5262,349.6451,436.1193,355.1242,441.83,347.1" style="stroke:#181818;stroke-width:1.0;"/></g><!--link applyJob to notifyRecruiter--><g id="link_applyJob_notifyRecruiter"><path d="M525.16,427.92 C581.21,406.54 677.9,369.67 735.56,347.68 " fill="none" id="applyJob-to-notifyRecruiter" style="stroke:#181818;stroke-width:1.0;stroke-dasharray:7.0,7.0;"/><polygon fill="#181818" points="739.95,346,730.115,345.4773,735.2796,347.7853,732.9715,352.9499,739.95,346" style="stroke:#181818;stroke-width:1.0;"/><text fill="#000000" font-family="sans-serif" font-size="13" lengthAdjust="spacing" textLength="62" x="602.83" y="373.547">&#171;extends&#187;</text></g><!--reverse link createJob to Recruiter--><g id="link_createJob_Recruiter"><path d="M548.94,791.19 C633.22,772.81 780.21,735.39 895.83,677.65 C949.02,651.08 1003.34,608.28 1035.92,580.56 " fill="none" id="createJob-backto-Recruiter" style="stroke:#181818;stroke-width:1.0;"/><polygon fill="#181818" points="544.21,792.21,553.8524,794.2162,549.0969,791.1526,552.1605,786.3971,544.21,792.21" style="stroke:#181818;stroke-width:1.0;"/></g><!--reverse link updateJob to Recruiter--><g id="link_updateJob_Recruiter"><path d="M537.19,715.55 C658.52,678.42 942.69,591.45 1035.97,562.9 " fill="none" id="updateJob-backto-Recruiter" style="stroke:#181818;stroke-width:1.0;"/><polygon fill="#181818" points="532.63,716.94,542.4059,718.1369,537.412,715.4796,540.0693,710.4858,532.63,716.94" style="stroke:#181818;stroke-width:1.0;"/></g><!--reverse link readJob to Recruiter--><g id="link_readJob_Recruiter"><path d="M561.56,583.84 C692.96,575.98 948.17,560.71 1035.82,555.47 " fill="none" id="readJob-backto-Recruiter" style="stroke:#181818;stroke-width:1.0;"/><polygon fill="#181818" points="556.91,584.12,566.134,587.5722,561.901,583.8197,565.6535,579.5867,556.91,584.12" style="stroke:#181818;stroke-width:1.0;"/></g><!--reverse link deleteJob to Recruiter--><g id="link_deleteJob_Recruiter"><path d="M566.96,519.26 C663.36,521.61 824.6,527.15 962.83,539.65 C987.55,541.88 1015.42,545.73 1035.99,548.83 " fill="none" id="deleteJob-backto-Recruiter" style="stroke:#181818;stroke-width:1.0;"/><polygon fill="#181818" points="562.22,519.15,571.1142,523.38,567.2183,519.2785,571.3198,515.3827,562.22,519.15" style="stroke:#181818;stroke-width:1.0;"/></g><!--link Candidate to searchJob--><g id="link_Candidate_searchJob"><path d="M326.14,606.24 C338.18,612.16 351.94,618.55 364.8,623.65 C382.9,630.82 403.05,637.55 421.33,643.21 " fill="none" id="Candidate-to-searchJob" style="stroke:#181818;stroke-width:1.0;"/><polygon fill="#181818" points="426.01,644.64,418.583,638.1717,421.2308,643.1706,416.2319,645.8184,426.01,644.64" style="stroke:#181818;stroke-width:1.0;"/></g><!--link Candidate to readJob--><g id="link_Candidate_readJob"><path d="M326.17,588.65 C345.96,588.65 371.88,588.65 396.75,588.65 " fill="none" id="Candidate-to-readJob" style="stroke:#181818;stroke-width:1.0;"/><polygon fill="#181818" points="401.53,588.65,392.53,584.65,396.53,588.65,392.53,592.65,401.53,588.65" style="stroke:#181818;stroke-width:1.0;"/></g><!--link Candidate to applyJob--><g id="link_Candidate_applyJob"><path d="M310.89,548.86 C323.28,526.27 341.56,499.09 364.8,481.65 C377.78,471.9 393.43,464.66 408.93,459.31 " fill="none" id="Candidate-to-applyJob" style="stroke:#181818;stroke-width:1.0;"/><polygon fill="#181818" points="413.65,457.75,403.8513,456.757,408.8995,459.3097,406.3468,464.3578,413.65,457.75" style="stroke:#181818;stroke-width:1.0;"/></g><!--link askDeletion to notifyAdmin--><g id="link_askDeletion_notifyAdmin"><path d="M864.71,952.65 C902.81,952.65 948.27,952.65 986.37,952.65 " fill="none" id="askDeletion-to-notifyAdmin" style="stroke:#181818;stroke-width:1.0;stroke-dasharray:7.0,7.0;"/><polygon fill="#181818" points="990.9,952.65,981.9,948.65,985.9,952.65,981.9,956.65,990.9,952.65" style="stroke:#181818;stroke-width:1.0;"/><text fill="#000000" font-family="sans-serif" font-size="13" lengthAdjust="spacing" textLength="57" x="904.83" y="948.547">&#171;include&#187;</text></g><!--link Candidate to Profile_CRU--><g id="link_Candidate_Profile_CRU"><path d="M298.07,628.64 C308.21,692.71 331.38,813.82 364.8,839.65 C464.89,917 622.4,894.15 712.79,871.66 " fill="none" id="Candidate-to-Profile_CRU" style="stroke:#181818;stroke-width:1.0;"/><polygon fill="#181818" points="717.44,870.49,707.7374,868.799,712.5901,871.706,709.6831,876.5588,717.44,870.49" style="stroke:#181818;stroke-width:1.0;"/></g><!--reverse link Profile_CRU to Recruiter--><g id="link_Profile_CRU_Recruiter"><path d="M852.62,826.55 C888.81,811.01 932.1,787.84 962.83,756.65 C1009.05,709.74 1038.89,637.98 1054.1,593.53 " fill="none" id="Profile_CRU-backto-Recruiter" style="stroke:#181818;stroke-width:1.0;"/><polygon fill="#181818" points="848.27,828.39,858.1172,828.5731,852.876,826.4446,855.0045,821.2035,848.27,828.39" style="stroke:#181818;stroke-width:1.0;"/></g><!--link Candidate to askDeletion--><g id="link_Candidate_askDeletion"><path d="M295.92,628.46 C303.68,704.37 324.56,865.47 364.8,901.65 C461.13,988.25 624.36,979.41 715.74,965.75 " fill="none" id="Candidate-to-askDeletion" style="stroke:#181818;stroke-width:1.0;"/><polygon fill="#181818" points="720.43,965.03,710.9281,962.4388,715.4876,965.7871,712.1394,970.3466,720.43,965.03" style="stroke:#181818;stroke-width:1.0;"/></g><!--link Recruiter to askDeletion--><g id="link_Recruiter_askDeletion"><path d="M1052.63,593.57 C1022.85,678.72 950.2,873.87 895.83,916.65 C883.39,926.43 868.21,933.6 853.11,938.83 " fill="none" id="Recruiter-to-askDeletion" style="stroke:#181818;stroke-width:1.0;"/><polygon fill="#181818" points="848.55,940.34,858.3513,941.3064,853.2963,938.7674,855.8352,933.7124,848.55,940.34" style="stroke:#181818;stroke-width:1.0;"/></g><!--link Admin to deleteProfile--><g id="link_Admin_deleteProfile"><path d="M502.52,1039.45 C543.55,1037.14 635.72,1031.94 703.22,1028.13 " fill="none" id="Admin-to-deleteProfile" style="stroke:#181818;stroke-width:1.0;"/><polygon fill="#181818" points="708.16,1027.86,698.9564,1024.3537,703.1674,1028.131,699.3901,1032.342,708.16,1027.86" style="stroke:#181818;stroke-width:1.0;"/></g><!--reverse link Review_CRUD to Candidate--><g id="link_Review_CRUD_Candidate"><path d="M200.75,588.65 C220.66,588.65 240.52,588.65 256.45,588.65 " fill="none" id="Review_CRUD-backto-Candidate" style="stroke:#181818;stroke-width:1.0;"/><polygon fill="#181818" points="195.8,588.65,204.8,592.65,200.8,588.65,204.8,584.65,195.8,588.65" style="stroke:#181818;stroke-width:1.0;"/></g><!--link selectSubscription to paySubscription--><g id="link_selectSubscription_paySubscription"><path d="M1289.96,527.49 C1323.94,531.81 1374.74,538.26 1417.37,543.68 " fill="none" id="selectSubscription-to-paySubscription" style="stroke:#181818;stroke-width:1.0;stroke-dasharray:7.0,7.0;"/><polygon fill="#181818" points="1422.09,544.28,1413.6628,539.1827,1417.1295,543.6528,1412.6593,547.1195,1422.09,544.28" style="stroke:#181818;stroke-width:1.0;"/><text fill="#000000" font-family="sans-serif" font-size="13" lengthAdjust="spacing" textLength="57" x="1326.07" y="529.547">&#171;include&#187;</text></g><!--link renewSubscription to paySubscription--><g id="link_renewSubscription_paySubscription"><path d="M1292.4,585.33 C1327.4,579.88 1378.85,571.86 1421.25,565.26 " fill="none" id="renewSubscription-to-paySubscription" style="stroke:#181818;stroke-width:1.0;stroke-dasharray:7.0,7.0;"/><polygon fill="#181818" points="1425.94,564.53,1416.4308,561.9657,1420.9998,565.301,1417.6645,569.87,1425.94,564.53" style="stroke:#181818;stroke-width:1.0;"/><text fill="#000000" font-family="sans-serif" font-size="13" lengthAdjust="spacing" textLength="57" x="1326.07" y="567.547">&#171;include&#187;</text></g><!--link Recruiter to selectSubscription--><g id="link_Recruiter_selectSubscription"><path d="M1098.62,548.46 C1128.28,543.39 1173.68,535.65 1207,529.96 " fill="none" id="Recruiter-to-selectSubscription" style="stroke:#181818;stroke-width:1.0;"/><polygon fill="#181818" points="1211.58,529.18,1202.0345,526.7543,1206.6515,530.0228,1203.3831,534.6399,1211.58,529.18" style="stroke:#181818;stroke-width:1.0;"/></g><!--link Recruiter to renewSubscription--><g id="link_Recruiter_renewSubscription"><path d="M1098.62,560.01 C1127.81,566.11 1172.23,575.41 1205.38,582.34 " fill="none" id="Recruiter-to-renewSubscription" style="stroke:#181818;stroke-width:1.0;"/><polygon fill="#181818" points="1209.96,583.3,1201.9737,577.5364,1205.0666,582.2728,1200.3302,585.3658,1209.96,583.3" style="stroke:#181818;stroke-width:1.0;"/></g><!--SRC=[ZLLDRzim3BtdLn0vROVu1mn5W20vxR053hhBC0oAH2TQNTkGv7N1qFy-VTccf1Jh9P4V7qcHJvHQR0oO7fIyN0q8gP0RsNUh5UEcLr0ZLwCqgEBtddL22cOmVk_4ixHavyMwIukm6uPMSkPYmDyLm8TztndB_GXC0mzh1t-J-09i8MjF-6rH4a4xvevp70pbUYhpi2FKs8mQ2uBoSDn28zLpT64Tnsat3jxDA0sMKaEibFcbDxAv0PywuecT1vSkBJmrTPBmbkv2p0ZLM6tpA9_WuK5sl1q5RhUM6dRpBcfH8rIpqvpzVdpYynwdg2rKtwzI2En-YAgKytMrcWF0PjnivoEHmL7T38sIPcYHPUu6R4A6JERKNcXBZ_Fd_lorQMocS9OLEgzV_HbwXuPZv45BT8p7GPICqOEHKICJcTq64D5wm1OBV-71o3WXK_oQCRG78yFrukPcEkMu-RW5ohHyIrVyOx0JskfwHx2vtComL5ce5ihBuAMgL8-bbbod42P5vwg8Q4VLDzB-Eysij9pf6VkvhnzTCzRMLED5wZ1yLML_edP3O4welwWMREqxh9-WiRUVBs6-aFJJ8NwJiMVkWYGZ7oxCHUaOcUXyd7EHY4Gf7o6TFgjIsXLIRTvsQifQIGeWJfd5f_TekbtI_nhTI2Rj3v1BUfZQlnC2c5NL6J89SZWy5XaO6qZWTTO8Lov9JBTu6i-QApaixzJ9XelFbFPBIWc3s-5Bd5Uxoir7TWDDCCySs2tZbR6zj1cnl96pZF1_hzTCn3jLfOIoh7y0]--></g></svg>