<?xml version="1.0" encoding="us-ascii" standalone="no"?><svg xmlns="http://www.w3.org/2000/svg" xmlns:xlink="http://www.w3.org/1999/xlink" contentStyleType="text/css" height="1177px" preserveAspectRatio="none" style="width:1350px;height:1177px;background:#FFFFFF;" version="1.1" viewBox="0 0 1350 1177" width="1350px" zoomAndPan="magnify"><defs/><g><!--cluster Application--><g id="cluster_Application"><rect fill="none" height="313" rx="2.5" ry="2.5" style="stroke:#181818;stroke-width:1.0;" width="515.03" x="122" y="353"/><text fill="#000000" font-family="sans-serif" font-size="14" font-weight="bold" lengthAdjust="spacing" textLength="79" x="340.015" y="369.9659">Application</text></g><!--cluster JobOffer--><g id="cluster_JobOffer"><rect fill="none" height="451" rx="2.5" ry="2.5" style="stroke:#181818;stroke-width:1.0;" width="201.17" x="128.93" y="690"/><text fill="#000000" font-family="sans-serif" font-size="14" font-weight="bold" lengthAdjust="spacing" textLength="58" x="200.515" y="706.9659">JobOffer</text></g><!--cluster Profile--><g id="cluster_Profile"><rect fill="none" height="294" rx="2.5" ry="2.5" style="stroke:#181818;stroke-width:1.0;" width="470.35" x="436.47" y="7"/><text fill="#000000" font-family="sans-serif" font-size="14" font-weight="bold" lengthAdjust="spacing" textLength="45" x="649.145" y="23.9659">Profile</text></g><!--cluster Review--><g id="cluster_Review"><rect fill="none" height="192" rx="2.5" ry="2.5" style="stroke:#181818;stroke-width:1.0;" width="202.8" x="431.63" y="979"/><text fill="#000000" font-family="sans-serif" font-size="14" font-weight="bold" lengthAdjust="spacing" textLength="49" x="508.53" y="995.9659">Review</text></g><!--cluster Subscription--><g id="cluster_Subscription"><rect fill="none" height="167" rx="2.5" ry="2.5" style="stroke:#181818;stroke-width:1.0;" width="404.91" x="939.82" y="468"/><text fill="#000000" font-family="sans-serif" font-size="14" font-weight="bold" lengthAdjust="spacing" textLength="87" x="1098.775" y="484.9659">Subscription</text></g><g id="elem_contact"><ellipse cx="229.5078" cy="407.9993" fill="#F1F1F1" rx="48.7578" ry="16.8493" style="stroke:#181818;stroke-width:0.5;"/><text fill="#000000" font-family="sans-serif" font-size="14" lengthAdjust="spacing" textLength="51" x="201.0078" y="412.7323">Contact</text></g><g id="elem_viewApplications"><ellipse cx="533.0282" cy="410.0016" fill="#F1F1F1" rx="84.9582" ry="19.3916" style="stroke:#181818;stroke-width:0.5;"/><text fill="#000000" font-family="sans-serif" font-size="14" lengthAdjust="spacing" textLength="117" x="471.5282" y="414.7346">View applications</text></g><g id="elem_accept"><ellipse cx="533.0262" cy="559.0032" fill="#F1F1F1" rx="87.6162" ry="19.9232" style="stroke:#181818;stroke-width:0.5;"/><text fill="#000000" font-family="sans-serif" font-size="14" lengthAdjust="spacing" textLength="124" x="468.0262" y="563.7362">Accept application</text></g><g id="elem_refuse"><ellipse cx="533.0309" cy="484.0002" fill="#F1F1F1" rx="88.0009" ry="20.0002" style="stroke:#181818;stroke-width:0.5;"/><text fill="#000000" font-family="sans-serif" font-size="14" lengthAdjust="spacing" textLength="125" x="467.5309" y="488.7331">Refuse application</text></g><g id="elem_confirmAcceptance"><ellipse cx="229.515" cy="554.003" fill="#F1F1F1" rx="91.515" ry="20.703" style="stroke:#181818;stroke-width:0.5;"/><text fill="#000000" font-family="sans-serif" font-size="14" lengthAdjust="spacing" textLength="134" x="159.515" y="558.736">Confirm acceptance</text></g><g id="elem_refuseAcceptance"><ellipse cx="229.5068" cy="629.9974" fill="#F1F1F1" rx="88.3868" ry="20.0774" style="stroke:#181818;stroke-width:0.5;"/><text fill="#000000" font-family="sans-serif" font-size="14" lengthAdjust="spacing" textLength="126" x="163.5068" y="634.7303">Refuse acceptance</text></g><g id="elem_notifyCandidate"><ellipse cx="229.5118" cy="478.9964" fill="#F1F1F1" rx="82.7318" ry="18.9464" style="stroke:#181818;stroke-width:0.5;"/><text fill="#000000" font-family="sans-serif" font-size="14" lengthAdjust="spacing" textLength="111" x="171.0118" y="483.7293">Notify candidate</text></g><g id="elem_notifyRecruiter"><ellipse cx="533.025" cy="631.999" fill="#F1F1F1" rx="79.845" ry="18.369" style="stroke:#181818;stroke-width:0.5;"/><text fill="#000000" font-family="sans-serif" font-size="14" lengthAdjust="spacing" textLength="103" x="478.525" y="636.732">Notify recruiter</text></g><g id="elem_createJob"><ellipse cx="229.5074" cy="892.0015" fill="#F1F1F1" rx="80.5574" ry="18.5115" style="stroke:#181818;stroke-width:0.5;"/><text fill="#000000" font-family="sans-serif" font-size="14" lengthAdjust="spacing" textLength="105" x="174.0074" y="896.7345">Create job offer</text></g><g id="elem_updateJob"><ellipse cx="229.5056" cy="820.0031" fill="#F1F1F1" rx="82.3656" ry="18.8731" style="stroke:#181818;stroke-width:0.5;"/><text fill="#000000" font-family="sans-serif" font-size="14" lengthAdjust="spacing" textLength="110" x="171.5056" y="824.7361">Update job offer</text></g><g id="elem_readJob"><ellipse cx="229.5118" cy="1035.0024" fill="#F1F1F1" rx="77.0618" ry="17.8124" style="stroke:#181818;stroke-width:0.5;"/><text fill="#000000" font-family="sans-serif" font-size="14" lengthAdjust="spacing" textLength="95" x="179.0118" y="1039.7353">Read job offer</text></g><g id="elem_deleteJob"><ellipse cx="229.5104" cy="964.0001" fill="#F1F1F1" rx="80.2004" ry="18.4401" style="stroke:#181818;stroke-width:0.5;"/><text fill="#000000" font-family="sans-serif" font-size="14" lengthAdjust="spacing" textLength="104" x="174.5104" y="968.733">Delete job offer</text></g><g id="elem_searchJob"><ellipse cx="229.5061" cy="1105.9952" fill="#F1F1F1" rx="81.2761" ry="18.6552" style="stroke:#181818;stroke-width:0.5;"/><text fill="#000000" font-family="sans-serif" font-size="14" lengthAdjust="spacing" textLength="107" x="173.0061" y="1110.7282">Search job offer</text></g><g id="elem_applyJob"><ellipse cx="229.5137" cy="746.9967" fill="#F1F1F1" rx="84.5837" ry="19.3167" style="stroke:#181818;stroke-width:0.5;"/><text fill="#000000" font-family="sans-serif" font-size="14" lengthAdjust="spacing" textLength="116" x="168.5137" y="751.7297">Apply to job offer</text></g><g id="elem_Profile_CRU"><ellipse cx="533.026" cy="166.0031" fill="#F1F1F1" rx="70.456" ry="48.3031" style="stroke:#181818;stroke-width:0.5;"/><text fill="#000000" font-family="sans-serif" font-size="14" lengthAdjust="spacing" textLength="56" x="499.276" y="142.3671">Register</text><line style="stroke:#181818;stroke-width:1.0;stroke-dasharray:1.0,2.0;" x1="469.5883" x2="596.4637" y1="146.4691" y2="146.4691"/><text fill="#000000" font-family="sans-serif" font-size="14" lengthAdjust="spacing" textLength="97" x="478.776" y="165.435">Update profile</text><line style="stroke:#181818;stroke-width:1.0;stroke-dasharray:1.0,2.0;" x1="464.4323" x2="601.6197" y1="173.537" y2="173.537"/><text fill="#000000" font-family="sans-serif" font-size="14" lengthAdjust="spacing" textLength="79" x="487.776" y="192.5029">View profile</text></g><g id="elem_askDeletion"><ellipse cx="533.0274" cy="64.0015" fill="#F1F1F1" rx="80.5574" ry="18.5115" style="stroke:#181818;stroke-width:0.5;"/><text fill="#000000" font-family="sans-serif" font-size="14" lengthAdjust="spacing" textLength="105" x="477.5274" y="68.7345">Ask for deletion</text></g><g id="elem_notifyAdmin"><ellipse cx="816.4344" cy="63.9989" fill="#F1F1F1" rx="74.3944" ry="17.2789" style="stroke:#181818;stroke-width:0.5;"/><text fill="#000000" font-family="sans-serif" font-size="14" lengthAdjust="spacing" textLength="87" x="769.9344" y="68.7318">Notify admin</text></g><g id="elem_deleteProfile"><ellipse cx="533.0328" cy="267.0026" fill="#F1F1F1" rx="75.7128" ry="17.5426" style="stroke:#181818;stroke-width:0.5;"/><text fill="#000000" font-family="sans-serif" font-size="14" lengthAdjust="spacing" textLength="91" x="484.5328" y="271.7355">Delete profile</text></g><g id="elem_Review_CRUD"><ellipse cx="533.03" cy="1086" fill="#F1F1F1" rx="85.4" ry="68.92" style="stroke:#181818;stroke-width:0.5;"/><text fill="#000000" font-family="sans-serif" font-size="14" lengthAdjust="spacing" textLength="87" x="485.53" y="1048.8301">Add a review</text><line style="stroke:#181818;stroke-width:1.0;stroke-dasharray:1.0,2.0;" x1="459.102" x2="606.9579" y1="1052.932" y2="1052.932"/><text fill="#000000" font-family="sans-serif" font-size="14" lengthAdjust="spacing" textLength="109" x="474.53" y="1071.898">Update a review</text><line style="stroke:#181818;stroke-width:1.0;stroke-dasharray:1.0,2.0;" x1="448.9542" x2="617.1057" y1="1080" y2="1080"/><text fill="#000000" font-family="sans-serif" font-size="14" lengthAdjust="spacing" textLength="91" x="483.53" y="1098.9659">View a review</text><line style="stroke:#181818;stroke-width:1.0;stroke-dasharray:1.0,2.0;" x1="452.7179" x2="613.342" y1="1107.0679" y2="1107.0679"/><text fill="#000000" font-family="sans-serif" font-size="14" lengthAdjust="spacing" textLength="103" x="477.53" y="1126.0338">Delete a review</text></g><g id="elem_selectSubscription"><ellipse cx="1000.0444" cy="524.0005" fill="#F1F1F1" rx="40.4444" ry="16.7305" style="stroke:#181818;stroke-width:0.5;"/><text fill="#000000" font-family="sans-serif" font-size="14" lengthAdjust="spacing" textLength="40" x="977.0444" y="528.7335">Select</text></g><g id="elem_renewSubscription"><ellipse cx="1000.0426" cy="593" fill="#F1F1F1" rx="44.2226" ry="16.79" style="stroke:#181818;stroke-width:0.5;"/><text fill="#000000" font-family="sans-serif" font-size="14" lengthAdjust="spacing" textLength="45" x="974.5426" y="597.7329">Renew</text></g><g id="elem_paySubscription"><ellipse cx="1246.0018" cy="554.9964" fill="#F1F1F1" rx="82.7318" ry="18.9464" style="stroke:#181818;stroke-width:0.5;"/><text fill="#000000" font-family="sans-serif" font-size="14" lengthAdjust="spacing" textLength="111" x="1187.5018" y="559.7293">Pay subscription</text></g><!--entity Recruiter--><g id="elem_Recruiter"><ellipse cx="816.43" cy="527.97" fill="#F1F1F1" rx="8" ry="8" style="stroke:#181818;stroke-width:0.5;"/><path d="M816.43,535.97 L816.43,562.97 M803.43,543.97 L829.43,543.97 M816.43,562.97 L803.43,577.97 M816.43,562.97 L829.43,577.97 " fill="none" style="stroke:#181818;stroke-width:0.5;"/><text fill="#000000" font-family="sans-serif" font-size="14" lengthAdjust="spacing" textLength="62" x="785.43" y="594.4359">Recruiter</text></g><!--entity Candidate--><g id="elem_Candidate"><ellipse cx="40.5" cy="598.97" fill="#F1F1F1" rx="8" ry="8" style="stroke:#181818;stroke-width:0.5;"/><path d="M40.5,606.97 L40.5,633.97 M27.5,614.97 L53.5,614.97 M40.5,633.97 L27.5,648.97 M40.5,633.97 L53.5,648.97 " fill="none" style="stroke:#181818;stroke-width:0.5;"/><text fill="#000000" font-family="sans-serif" font-size="14" lengthAdjust="spacing" textLength="69" x="6" y="665.4359">Candidate</text></g><!--entity Admin--><g id="elem_Admin"><ellipse cx="229.51" cy="235.97" fill="#F1F1F1" rx="8" ry="8" style="stroke:#181818;stroke-width:0.5;"/><path d="M229.51,243.97 L229.51,270.97 M216.51,251.97 L242.51,251.97 M229.51,270.97 L216.51,285.97 M229.51,270.97 L242.51,285.97 " fill="none" style="stroke:#181818;stroke-width:0.5;"/><text fill="#000000" font-family="sans-serif" font-size="14" lengthAdjust="spacing" textLength="44" x="207.51" y="302.4359">Admin</text></g><!--reverse link notifyCandidate to accept--><g id="link_notifyCandidate_accept"><path d="M290.85,495.01 C344.37,509.21 422,529.81 474.62,543.77 " fill="none" id="notifyCandidate-backto-accept" style="stroke:#181818;stroke-width:1.0;stroke-dasharray:7.0,7.0;"/><polygon fill="#181818" points="286.23,493.78,293.9193,499.9343,291.0661,495.0497,295.9507,492.1965,286.23,493.78" style="stroke:#181818;stroke-width:1.0;"/><text fill="#000000" font-family="sans-serif" font-size="13" lengthAdjust="spacing" textLength="57" x="354.53" y="507.897">&#171;include&#187;</text></g><!--reverse link notifyCandidate to refuse--><g id="link_notifyCandidate_refuse"><path d="M318.29,476.59 C348.91,476.14 383.49,476.06 415.03,477 C425.71,477.32 436.93,477.8 448.02,478.37 " fill="none" id="notifyCandidate-backto-refuse" style="stroke:#181818;stroke-width:1.0;stroke-dasharray:7.0,7.0;"/><polygon fill="#181818" points="313.33,476.67,322.3862,480.541,318.3295,476.5986,322.2719,472.5418,313.33,476.67" style="stroke:#181818;stroke-width:1.0;"/><text fill="#000000" font-family="sans-serif" font-size="13" lengthAdjust="spacing" textLength="57" x="354.53" y="472.897">&#171;include&#187;</text></g><!--link confirmAcceptance to notifyRecruiter--><g id="link_confirmAcceptance_notifyRecruiter"><path d="M291.17,569.69 C343.88,583.33 419.81,602.97 472.27,616.54 " fill="none" id="confirmAcceptance-to-notifyRecruiter" style="stroke:#181818;stroke-width:1.0;stroke-dasharray:7.0,7.0;"/><polygon fill="#181818" points="477.08,617.78,469.3738,611.647,472.2404,616.5237,467.3637,619.3903,477.08,617.78" style="stroke:#181818;stroke-width:1.0;"/><text fill="#000000" font-family="sans-serif" font-size="13" lengthAdjust="spacing" textLength="57" x="354.53" y="582.897">&#171;include&#187;</text></g><!--link refuseAcceptance to notifyRecruiter--><g id="link_refuseAcceptance_notifyRecruiter"><path d="M318.13,630.58 C358.57,630.85 406.4,631.17 446.57,631.43 " fill="none" id="refuseAcceptance-to-notifyRecruiter" style="stroke:#181818;stroke-width:1.0;stroke-dasharray:7.0,7.0;"/><polygon fill="#181818" points="451.43,631.47,442.453,627.4186,446.4301,631.4414,442.4073,635.4185,451.43,631.47" style="stroke:#181818;stroke-width:1.0;"/><text fill="#000000" font-family="sans-serif" font-size="13" lengthAdjust="spacing" textLength="57" x="354.53" y="626.897">&#171;include&#187;</text></g><!--link contact to viewApplications--><!--reverse link contact to Recruiter--><g id="link_contact_Recruiter"><path d="M268.71,393.39 C344.04,366.99 515.66,318.85 645.03,373 C713.3,401.58 765.69,473.48 793.42,519.06 " fill="none" id="contact-backto-Recruiter" style="stroke:#181818;stroke-width:1.0;"/><polygon fill="#181818" points="264.45,394.91,274.27,395.6632,269.161,393.2347,271.5895,388.1256,264.45,394.91" style="stroke:#181818;stroke-width:1.0;"/></g><!--reverse link accept to Recruiter--><g id="link_accept_Recruiter"><path d="M627.41,559 C682.07,559 747.53,559 785.01,559 " fill="none" id="accept-backto-Recruiter" style="stroke:#181818;stroke-width:1.0;"/><polygon fill="#181818" points="622.65,559,631.65,563,627.65,559,631.65,555,622.65,559" style="stroke:#181818;stroke-width:1.0;"/></g><!--reverse link refuse to Recruiter--><g id="link_refuse_Recruiter"><path d="M597.25,500.85 C655.83,516.46 740.43,539.01 785.12,550.92 " fill="none" id="refuse-backto-Recruiter" style="stroke:#181818;stroke-width:1.0;"/><polygon fill="#181818" points="592.78,499.66,600.4523,505.8355,597.6126,500.943,602.5051,498.1033,592.78,499.66" style="stroke:#181818;stroke-width:1.0;"/></g><!--reverse link viewApplications to Recruiter--><g id="link_viewApplications_Recruiter"><path d="M595.66,426.7 C612.05,432.02 629.51,438.51 645.03,446 C697.14,471.15 751.97,510.08 784.93,535.05 " fill="none" id="viewApplications-backto-Recruiter" style="stroke:#181818;stroke-width:1.0;"/><polygon fill="#181818" points="591.11,425.25,598.4784,431.7851,595.8758,426.7625,600.8983,424.1599,591.11,425.25" style="stroke:#181818;stroke-width:1.0;"/></g><!--link Candidate to confirmAcceptance--><g id="link_Candidate_confirmAcceptance"><path d="M75.25,610.86 C87.27,604.43 101.05,597.5 114,592 C130.8,584.86 149.44,578.18 166.71,572.47 " fill="none" id="Candidate-to-confirmAcceptance" style="stroke:#181818;stroke-width:1.0;"/><polygon fill="#181818" points="171.07,571.05,161.2722,570.0482,166.3181,572.6054,163.7609,577.6513,171.07,571.05" style="stroke:#181818;stroke-width:1.0;"/></g><!--link Candidate to refuseAcceptance--><g id="link_Candidate_refuseAcceptance"><path d="M75.37,630 C92.13,630 113.29,630 134.48,630 " fill="none" id="Candidate-to-refuseAcceptance" style="stroke:#181818;stroke-width:1.0;"/><polygon fill="#181818" points="139.24,630,130.24,626,134.24,630,130.24,634,139.24,630" style="stroke:#181818;stroke-width:1.0;"/></g><!--link applyJob to notifyRecruiter--><g id="link_applyJob_notifyRecruiter"><path d="M274.36,730.28 C330.41,708.9 427.1,672.02 484.76,650.03 " fill="none" id="applyJob-to-notifyRecruiter" style="stroke:#181818;stroke-width:1.0;stroke-dasharray:7.0,7.0;"/><polygon fill="#181818" points="489.15,648.36,479.315,647.8373,484.4796,650.1453,482.1715,655.3099,489.15,648.36" style="stroke:#181818;stroke-width:1.0;"/><text fill="#000000" font-family="sans-serif" font-size="13" lengthAdjust="spacing" textLength="62" x="352.03" y="675.897">&#171;extends&#187;</text></g><!--reverse link createJob to Recruiter--><g id="link_createJob_Recruiter"><path d="M287.83,875.54 C304.36,870.07 322.22,863.45 338.1,856 C344.22,853.13 344.89,850.82 351.03,848 C475.59,790.84 530.45,830.19 645.03,755 C707.8,713.81 761,643.29 790.52,599.01 " fill="none" id="createJob-backto-Recruiter" style="stroke:#181818;stroke-width:1.0;"/><polygon fill="#181818" points="283.25,877.03,293.0478,878.0318,288.0019,875.4746,290.5591,870.4287,283.25,877.03" style="stroke:#181818;stroke-width:1.0;"/></g><!--reverse link updateJob to Recruiter--><g id="link_updateJob_Recruiter"><path d="M287.57,802.95 C304.09,797.47 322.01,790.98 338.1,784 C344.09,781.4 345.09,779.72 351.03,777 C478.07,718.96 519.93,728.11 645.03,666 C696.34,640.52 751.84,603.78 785.1,580.65 " fill="none" id="updateJob-backto-Recruiter" style="stroke:#181818;stroke-width:1.0;"/><polygon fill="#181818" points="282.99,804.45,292.7878,805.4518,287.7419,802.8946,290.2991,797.8487,282.99,804.45" style="stroke:#181818;stroke-width:1.0;"/></g><!--reverse link readJob to Recruiter--><g id="link_readJob_Recruiter"><path d="M299.59,1023.49 C385.67,1006.81 534.85,970.08 645.03,901 C753.37,833.08 795.16,673.56 809.2,598.88 " fill="none" id="readJob-backto-Recruiter" style="stroke:#181818;stroke-width:1.0;"/><polygon fill="#181818" points="294.74,1024.42,304.3325,1026.6525,299.6504,1023.4779,302.8251,1018.7958,294.74,1024.42" style="stroke:#181818;stroke-width:1.0;"/></g><!--reverse link deleteJob to Recruiter--><g id="link_deleteJob_Recruiter"><path d="M288.59,947.92 C304.99,942.49 322.58,935.79 338.1,928 C344.36,924.86 344.73,922.05 351.03,919 C473.9,859.5 529.44,902.65 645.03,830 C731.38,775.73 781.49,660.02 802.94,598.84 " fill="none" id="deleteJob-backto-Recruiter" style="stroke:#181818;stroke-width:1.0;"/><polygon fill="#181818" points="284.05,949.39,293.8459,950.4097,288.8047,947.8433,291.3712,942.8021,284.05,949.39" style="stroke:#181818;stroke-width:1.0;"/></g><!--link Candidate to searchJob--><g id="link_Candidate_searchJob"><path d="M42.85,669.71 C46.94,766.37 62.24,1010.36 114,1070 C124.01,1081.53 137.67,1089.41 152.07,1094.79 " fill="none" id="Candidate-to-searchJob" style="stroke:#181818;stroke-width:1.0;"/><polygon fill="#181818" points="156.41,1096.3,149.2212,1089.5679,151.6869,1094.6591,146.5957,1097.1248,156.41,1096.3" style="stroke:#181818;stroke-width:1.0;"/></g><!--link Candidate to readJob--><g id="link_Candidate_readJob"><path d="M44.22,669.99 C50.82,755.38 70.44,951.69 114,1000 C124.63,1011.79 139.11,1019.66 154.19,1024.9 " fill="none" id="Candidate-to-readJob" style="stroke:#181818;stroke-width:1.0;"/><polygon fill="#181818" points="158.79,1026.38,151.463,1019.7986,154.0339,1024.8375,148.995,1027.4083,158.79,1026.38" style="stroke:#181818;stroke-width:1.0;"/></g><!--link Candidate to applyJob--><g id="link_Candidate_applyJob"><path d="M75.37,651.19 C108.94,672.19 160.11,704.21 193.93,725.36 " fill="none" id="Candidate-to-applyJob" style="stroke:#181818;stroke-width:1.0;"/><polygon fill="#181818" points="197.92,727.86,192.4154,719.693,193.6824,725.2062,188.1693,726.4732,197.92,727.86" style="stroke:#181818;stroke-width:1.0;"/></g><!--link askDeletion to notifyAdmin--><g id="link_askDeletion_notifyAdmin"><path d="M613.91,64 C652.01,64 697.47,64 735.57,64 " fill="none" id="askDeletion-to-notifyAdmin" style="stroke:#181818;stroke-width:1.0;stroke-dasharray:7.0,7.0;"/><polygon fill="#181818" points="740.1,64,731.1,60,735.1,64,731.1,68,740.1,64" style="stroke:#181818;stroke-width:1.0;"/><text fill="#000000" font-family="sans-serif" font-size="13" lengthAdjust="spacing" textLength="57" x="654.03" y="59.897">&#171;include&#187;</text></g><!--link Candidate to Profile_CRU--><g id="link_Candidate_Profile_CRU"><path d="M42.49,590.05 C45.71,495.35 59.17,261.32 114,210 C206.7,123.23 366.51,134.08 459.37,149.94 " fill="none" id="Candidate-to-Profile_CRU" style="stroke:#181818;stroke-width:1.0;"/><polygon fill="#181818" points="464.18,150.78,455.9985,145.2971,459.2539,149.9233,454.6277,153.1788,464.18,150.78" style="stroke:#181818;stroke-width:1.0;"/></g><!--reverse link Profile_CRU to Recruiter--><g id="link_Profile_CRU_Recruiter"><path d="M596.04,197.89 C612.72,207.77 630.23,219.4 645.03,232 C736.93,310.2 785.88,450.53 805.3,519.1 " fill="none" id="Profile_CRU-backto-Recruiter" style="stroke:#181818;stroke-width:1.0;"/><polygon fill="#181818" points="591.72,195.37,597.4818,203.3576,596.0399,197.8876,601.5099,196.4457,591.72,195.37" style="stroke:#181818;stroke-width:1.0;"/></g><!--link Candidate to askDeletion--><g id="link_Candidate_askDeletion"><path d="M41.69,590.32 C43.05,486.57 52.5,210.96 114,149 C202.74,59.6 358.1,51.47 452.38,56.09 " fill="none" id="Candidate-to-askDeletion" style="stroke:#181818;stroke-width:1.0;"/><polygon fill="#181818" points="457.27,56.35,448.5008,51.8667,452.2774,56.0782,448.0659,59.8548,457.27,56.35" style="stroke:#181818;stroke-width:1.0;"/></g><!--link Recruiter to askDeletion--><g id="link_Recruiter_askDeletion"><path d="M802.92,519 C769.39,412.74 677.79,129.52 645.03,100 C633.61,89.7 619.19,82.35 604.57,77.1 " fill="none" id="Recruiter-to-askDeletion" style="stroke:#181818;stroke-width:1.0;"/><polygon fill="#181818" points="600.18,75.6,607.4292,82.267,604.9177,77.1983,609.9864,74.6867,600.18,75.6" style="stroke:#181818;stroke-width:1.0;"/></g><!--link Admin to deleteProfile--><g id="link_Admin_deleteProfile"><path d="M251.72,267 C292.36,267 383.18,267 450.49,267 " fill="none" id="Admin-to-deleteProfile" style="stroke:#181818;stroke-width:1.0;"/><polygon fill="#181818" points="455.41,267,446.41,263,450.41,267,446.41,271,455.41,267" style="stroke:#181818;stroke-width:1.0;"/></g><!--reverse link Review_CRUD to Recruiter--><g id="link_Review_CRUD_Recruiter"><path d="M614.25,1051 C649.07,1032.03 687.43,1005.35 712.03,971 C795.44,854.54 811.8,677.6 814.84,599.02 " fill="none" id="Review_CRUD-backto-Recruiter" style="stroke:#181818;stroke-width:1.0;"/><polygon fill="#181818" points="610.03,1053.27,619.8514,1052.5345,614.4346,1050.9038,616.0654,1045.487,610.03,1053.27" style="stroke:#181818;stroke-width:1.0;"/></g><!--link selectSubscription to paySubscription--><g id="link_selectSubscription_paySubscription"><path d="M1039.16,528.84 C1073.14,533.16 1123.94,539.62 1166.57,545.03 " fill="none" id="selectSubscription-to-paySubscription" style="stroke:#181818;stroke-width:1.0;stroke-dasharray:7.0,7.0;"/><polygon fill="#181818" points="1171.29,545.63,1162.8647,540.5296,1166.3297,545.001,1161.8583,548.4661,1171.29,545.63" style="stroke:#181818;stroke-width:1.0;"/><text fill="#000000" font-family="sans-serif" font-size="13" lengthAdjust="spacing" textLength="57" x="1075.27" y="530.897">&#171;include&#187;</text></g><!--link renewSubscription to paySubscription--><g id="link_renewSubscription_paySubscription"><path d="M1041.6,586.68 C1076.6,581.23 1128.05,573.22 1170.45,566.61 " fill="none" id="renewSubscription-to-paySubscription" style="stroke:#181818;stroke-width:1.0;stroke-dasharray:7.0,7.0;"/><polygon fill="#181818" points="1175.14,565.88,1165.6308,563.3157,1170.1998,566.651,1166.8645,571.22,1175.14,565.88" style="stroke:#181818;stroke-width:1.0;"/><text fill="#000000" font-family="sans-serif" font-size="13" lengthAdjust="spacing" textLength="57" x="1075.27" y="568.897">&#171;include&#187;</text></g><!--link Recruiter to selectSubscription--><g id="link_Recruiter_selectSubscription"><path d="M847.82,553.14 C877.67,547.39 923.46,538.57 956.84,532.13 " fill="none" id="Recruiter-to-selectSubscription" style="stroke:#181818;stroke-width:1.0;"/><polygon fill="#181818" points="961.43,531.25,951.8363,529.0226,956.5201,532.1948,953.3479,536.8785,961.43,531.25" style="stroke:#181818;stroke-width:1.0;"/></g><!--link Recruiter to renewSubscription--><g id="link_Recruiter_renewSubscription"><path d="M847.82,564.69 C876.72,570.1 920.56,578.31 953.61,584.49 " fill="none" id="Recruiter-to-renewSubscription" style="stroke:#181818;stroke-width:1.0;"/><polygon fill="#181818" points="958.16,585.35,950.0592,579.7485,953.2469,584.4217,948.5738,587.6094,958.16,585.35" style="stroke:#181818;stroke-width:1.0;"/></g><!--SRC=[ZLLDRzim3BtdLn0vROVu1mn5W20vxR053hhBC0oAH2TQNTkGv7N1qFy-VTccf1Jh9P4V7qcHJvHQR0oO7fIyN0q8gP0RsNUh5UEcLr0ZLwCqgEBtddL22cOmVk_4ixHavyMwIukm6uPMSkPYmDyLm8TztndB_GXC0mzh1t-J-09i8MjF-6rH4a4xvevp70pbUYhpi2FKs8mQ2uBoSDn28zLpT64Tnsat3jxDA0sMKaEibFcbDxAv0PywuecT1vSkBJmrTPBmbkv2p0ZLM6tpA9_WuK5sl1q5RhUM6dRpBcfH8rIpqvpzVdpYynwdg2rKtwzI2En-YAgKytMrcWF0PjnivoEHmL7T38sIPcYHPUu6R4A6JERKNcXBZ_Fd_lorQMocS9OLEgzV_HbwXuPZv45BT8p7GPICqOEHKICJcTq64D5wm1OBV-71o3WXK_oQCRG78yFrukPcEkMu-RW5ohHyIrVyOx0JskfwHx2vtComL5ce5ihBuAMgL8-bbbod42P5vwg8Q4VLDzB-Eysij9pf6VkvhnzTCzRMLED5wZ1yLML_edP3O4welwWMREqxh9-WiRUVBs6-aFJJ8NwJiMVkWYGZ7oxCHUaOcUXyd7EHY4Gf7o6TFgjIsXLIRTvsQifQIGeWJfd5f_TekbtI_nhTI2Rj3v1BUfZQlnC2c5NL6J89SZWy5XaO6qZWzPtZIXBJBPx6i-PA3iixTRBXuZEb_P9Imk1s-1BdrQvoyv7TG1FCCmTsotXbR2zjHYnlv2mZ_D_hDHFnJbKfeIph7m00]--></g></svg>